<mxfile host="app.diagrams.net" modified="2022-08-18T13:11:40.844Z" agent="5.0 (Windows NT 10.0; Win64; x64) AppleWebKit/537.36 (KHTML, like Gecko) Chrome/100.0.4896.60 Safari/537.36" etag="SW467nL7mDpzF6YtVEYd" version="20.2.4" type="github">
  <diagram id="C5RBs43oDa-KdzZeNtuy" name="Page-1">
    <mxGraphModel dx="782" dy="436" grid="1" gridSize="10" guides="1" tooltips="1" connect="1" arrows="1" fold="1" page="1" pageScale="1" pageWidth="827" pageHeight="1169" math="0" shadow="0">
      <root>
        <mxCell id="WIyWlLk6GJQsqaUBKTNV-0" />
        <mxCell id="WIyWlLk6GJQsqaUBKTNV-1" parent="WIyWlLk6GJQsqaUBKTNV-0" />
        <mxCell id="QAcS5xoyfMFd0kO_kidX-3" value="" style="edgeStyle=orthogonalEdgeStyle;rounded=0;orthogonalLoop=1;jettySize=auto;html=1;" parent="WIyWlLk6GJQsqaUBKTNV-1" source="QAcS5xoyfMFd0kO_kidX-0" target="QAcS5xoyfMFd0kO_kidX-2" edge="1">
          <mxGeometry relative="1" as="geometry" />
        </mxCell>
        <mxCell id="QAcS5xoyfMFd0kO_kidX-0" value="Shared Folder (Interface)" style="rounded=1;whiteSpace=wrap;html=1;fontSize=12;glass=0;strokeWidth=1;shadow=0;" parent="WIyWlLk6GJQsqaUBKTNV-1" vertex="1">
          <mxGeometry x="160" y="290" width="120" height="40" as="geometry" />
        </mxCell>
        <mxCell id="QAcS5xoyfMFd0kO_kidX-1" value="&amp;nbsp;Pull&amp;nbsp;" style="endArrow=classic;html=1;rounded=0;exitX=0.462;exitY=1.05;exitDx=0;exitDy=0;exitPerimeter=0;entryX=0.5;entryY=0;entryDx=0;entryDy=0;" parent="WIyWlLk6GJQsqaUBKTNV-1" source="QAcS5xoyfMFd0kO_kidX-12" target="QAcS5xoyfMFd0kO_kidX-0" edge="1">
          <mxGeometry width="50" height="50" relative="1" as="geometry">
            <mxPoint x="220" y="280" as="sourcePoint" />
            <mxPoint x="300" y="250" as="targetPoint" />
          </mxGeometry>
        </mxCell>
        <mxCell id="QAcS5xoyfMFd0kO_kidX-2" value="Folder&lt;br&gt;Comp_ENV (D:/Comp/Test/ .EXE)" style="whiteSpace=wrap;html=1;rounded=1;glass=0;strokeWidth=1;shadow=0;" parent="WIyWlLk6GJQsqaUBKTNV-1" vertex="1">
          <mxGeometry x="160" y="400" width="120" height="60" as="geometry" />
        </mxCell>
        <mxCell id="QAcS5xoyfMFd0kO_kidX-4" value="Job Trigger" style="swimlane;startSize=23;" parent="WIyWlLk6GJQsqaUBKTNV-1" vertex="1">
          <mxGeometry x="370" y="370" width="210" height="120" as="geometry" />
        </mxCell>
        <mxCell id="QAcS5xoyfMFd0kO_kidX-6" value="Name: NYLJ213_Libor_Import&lt;br&gt;&amp;nbsp;&lt;br&gt;Timer: Morning and Evening&lt;br&gt;Scheduler : ICMPPP02, ICMPPMOR" style="text;html=1;strokeColor=none;fillColor=none;align=center;verticalAlign=middle;whiteSpace=wrap;rounded=0;" parent="QAcS5xoyfMFd0kO_kidX-4" vertex="1">
          <mxGeometry x="20" y="50" width="180" height="30" as="geometry" />
        </mxCell>
        <mxCell id="QAcS5xoyfMFd0kO_kidX-5" value="" style="endArrow=classic;html=1;rounded=0;entryX=0;entryY=0.5;entryDx=0;entryDy=0;exitX=1;exitY=0.5;exitDx=0;exitDy=0;" parent="WIyWlLk6GJQsqaUBKTNV-1" source="QAcS5xoyfMFd0kO_kidX-2" target="QAcS5xoyfMFd0kO_kidX-4" edge="1">
          <mxGeometry width="50" height="50" relative="1" as="geometry">
            <mxPoint x="290" y="420" as="sourcePoint" />
            <mxPoint x="330" y="300" as="targetPoint" />
          </mxGeometry>
        </mxCell>
        <mxCell id="QAcS5xoyfMFd0kO_kidX-9" value="Output : Table NYL_Libor_Rates" style="shape=parallelogram;perimeter=parallelogramPerimeter;whiteSpace=wrap;html=1;fixedSize=1;" parent="WIyWlLk6GJQsqaUBKTNV-1" vertex="1">
          <mxGeometry x="660" y="400" width="120" height="65" as="geometry" />
        </mxCell>
        <mxCell id="QAcS5xoyfMFd0kO_kidX-11" value="" style="endArrow=classic;html=1;rounded=0;entryX=0;entryY=0.25;entryDx=0;entryDy=0;" parent="WIyWlLk6GJQsqaUBKTNV-1" target="QAcS5xoyfMFd0kO_kidX-9" edge="1">
          <mxGeometry width="50" height="50" relative="1" as="geometry">
            <mxPoint x="580" y="420" as="sourcePoint" />
            <mxPoint x="380" y="440" as="targetPoint" />
            <Array as="points" />
          </mxGeometry>
        </mxCell>
        <mxCell id="QAcS5xoyfMFd0kO_kidX-12" value="Bloomberg&lt;br&gt;Input text file: Libor_GP.TXT" style="shape=parallelogram;perimeter=parallelogramPerimeter;whiteSpace=wrap;html=1;fixedSize=1;" parent="WIyWlLk6GJQsqaUBKTNV-1" vertex="1">
          <mxGeometry x="120" y="160" width="210" height="60" as="geometry" />
        </mxCell>
        <mxCell id="QAcS5xoyfMFd0kO_kidX-14" value="Libor Process&lt;br&gt;&lt;b&gt;Libor_Import.Exe&lt;/b&gt;" style="rounded=1;whiteSpace=wrap;html=1;" parent="WIyWlLk6GJQsqaUBKTNV-1" vertex="1">
          <mxGeometry x="380" y="60" width="120" height="40" as="geometry" />
        </mxCell>
      </root>
    </mxGraphModel>
  </diagram>
</mxfile>
